# xmcd CD database file
#
# Track frame offsets:
#	150
#	42212
#	81853
#	116705
#	144803
#
# Disc length: 2175 seconds
#
# Revision: 0
# Processed by: cddbd v1.5.1PL2 Copyright (c) Steve Scherf et al.
# Submitted via: CDex 1.51
#
DISCID=38087d05
DTITLE=Dave Grusin - One Of A Kind
DYEAR=1900
DGENRE=Jazz
TTITLE0=ÓÀÞ°¼Þ
TTITLE1=Ê°Ä¥²½Þ¥±¥ÛÝØ°¥ÊÝÀ°
TTITLE2=¶À³ÞªÝÄ
TTITLE3=ÓÝÀ°¼Þ­ 
TTITLE4=ÌßÚ²²°× 
EXTD=
EXTT0=
EXTT1=
EXTT2=
EXTT3=
EXTT4=
PLAYORDER=
